<?xml version="1.0" standalone="no"?>
<!DOCTYPE svg PUBLIC "-//W3C//DTD SVG 20010904//EN"
 "http://www.w3.org/TR/2001/REC-SVG-20010904/DTD/svg10.dtd">
<svg version="1.0" xmlns="http://www.w3.org/2000/svg"
 width="300.000000pt" height="300.000000pt" viewBox="0 0 300.000000 300.000000"
 preserveAspectRatio="xMidYMid meet">
<metadata>
Created by potrace 1.11, written by Peter Selinger 2001-2013
</metadata>
<g transform="translate(0.000000,300.000000) scale(0.100000,-0.100000)"
fill="#000000" stroke="none">
<path d="M330 2351 c61 -36 2663 -1481 2666 -1481 2 0 4 335 4 745 l0 745
-1342 0 c-773 0 -1337 -4 -1328 -9z"/>
<path d="M257 2253 c-4 -3 -7 -53 -7 -110 l0 -103 30 0 30 0 0 68 1 67 35 -67
c34 -67 35 -68 74 -68 l40 0 0 110 0 110 -25 0 c-24 0 -25 -2 -25 -72 l0 -73
-40 73 c-38 67 -43 72 -74 72 -18 0 -36 -3 -39 -7z"/>
<path d="M0 1391 l0 -761 1343 0 c1011 1 1337 3 1322 12 -11 6 -596 337 -1300
736 -704 398 -1299 736 -1322 749 l-43 25 0 -761z"/>
<path d="M2598 941 c-30 -26 -33 -35 -33 -84 0 -45 5 -60 24 -81 44 -47 146
-43 139 6 -3 18 -10 22 -48 22 l-45 1 -3 44 c-4 53 7 66 56 66 30 0 38 4 40
21 2 15 -4 23 -20 28 -47 12 -78 6 -110 -23z"/>
</g>
</svg>
